<svg width="1000" height="495" viewBox="0 0 1000 495" fill="none" xmlns="http://www.w3.org/2000/svg">
<path d="M1007.08 163.448L442.182 -356.858V-747.19L27.1096 -770C23.9043 -762.456 3.36709 -740.714 6.57176 -728.596C10.43 -714.102 29.8387 -718.735 35.4776 -709.409C42.0661 -698.42 30.7291 -653.749 27.3457 -640.86C20.8759 -616.445 6.09676 -596.665 1.82235 -572.25C-5.35982 -531.263 9.18245 -534.53 36.7242 -508.927C83.141 -465.742 45.9244 -420.952 57.6176 -370.223C67.1146 -328.878 108.605 -307.554 123.8 -266.211C135.553 -234.37 151.697 -226.233 176.746 -202.947C176.153 -217.084 163.51 -258.785 187.253 -255.102C210.817 -251.478 201.736 -216.669 206.247 -202.115C210.045 -189.997 236.933 -165.761 214.616 -154.593C207.196 -150.91 186.066 -165.582 177.577 -169.503C183.572 -150.791 179.774 -131.367 189.271 -113.487C200.608 -92.162 212.835 -100.359 227.853 -88.7754C243.344 -76.8355 241.683 -63.1137 234.797 -45.0554C227.615 -26.2247 220.196 -29.1352 231.592 -6.44342C239.843 9.95119 253.85 30.7421 265.9 43.2164C272.904 50.4634 280.502 52.1267 287.506 61.3932C293.323 69.1155 291.067 79.2142 298.012 86.1638C309.883 98.1037 330.006 98.282 339.384 113.904C349.831 131.309 337.96 144.437 368.706 142.833C370.309 177.643 376.897 209.185 376.541 243.994C393.695 250.825 421.414 242.687 439.399 239.063C457.266 263.18 480.355 246.429 500.774 259.558C509.678 265.26 507.837 279.517 513.239 284.506C524.339 294.723 532.529 288.308 546.301 291.872C556.51 294.486 564.404 301.97 574.138 304.703C583.338 307.257 598.475 301.258 605.301 309.396C613.492 319.138 599.78 336.958 612.127 344.799C622.395 351.333 637.115 335.77 647.088 338.027C658.721 340.7 692.079 371.174 700.271 381.212C709.59 392.677 718.969 414.062 724.25 428.793C732.501 451.841 731.373 463.127 748.408 479.998C759.27 490.75 748.942 491.522 766.63 494.67C778.204 496.749 793.518 488.374 805.212 487.067C829.549 484.394 854.122 489.027 878.102 484.453C900.421 480.176 921.729 473.166 944.64 469.899C964.465 467.048 999.367 469.246 1016.94 459.801C1035.99 449.643 1037.71 426.654 1010.17 430.932C1007.97 416.26 1017.77 396.003 1006.85 385.847C1022.04 365.056 1027.56 350.384 1029.93 324.959C1031 313.792 1031.48 301.436 1037 292.05C1042.4 282.783 1057.59 277.259 1060.56 269.299C1065.13 256.943 1057.83 251.419 1052.25 244.528C1048.69 240.073 1038.54 242.212 1035.63 238.291C1030.23 231.103 1035.57 223.678 1032.6 216.431C1023.94 195.462 1013.61 187.205 1007.08 163.444C1007.26 167.424 1007.44 171.463 1007.2 175.384" stroke="white" stroke-width="2" stroke-linecap="round" stroke-linejoin="round"/>
</svg>
