<svg width="29" height="359" viewBox="0 0 29 359" fill="none" xmlns="http://www.w3.org/2000/svg">
<g opacity="0.501842">
<path d="M7.278 347.011C7.278 348.307 7.746 349.423 8.7 350.449L9.69 349.585C8.934 348.775 8.61 348.055 8.61 347.101C8.61 345.895 9.312 345.103 10.446 345.103C11.85 345.103 12.57 346.093 12.57 347.281V347.893L13.848 348.091V347.191C13.848 345.733 14.352 344.797 16.008 344.797C17.43 344.797 18.366 345.715 18.366 347.227C18.366 348.199 18.006 349.027 17.16 349.783L18.096 350.791C19.194 349.873 19.716 348.613 19.716 347.173C19.716 344.671 18.132 343.069 16.026 343.069C14.208 343.069 13.254 344.275 13.11 345.787C12.786 344.437 11.868 343.447 10.338 343.447C8.718 343.447 7.278 344.707 7.278 347.011ZM16.53 325.042H15.216L15.216 326.608H11.976V328.048L15.216 328.192V331.612L7.854 328.354L7.278 329.74L15.342 333.358H16.53V328.21H19.5V326.608H16.53V325.042ZM17.214 314.356C17.214 315.058 17.772 315.598 18.456 315.598C19.158 315.598 19.716 315.058 19.716 314.356C19.716 313.636 19.158 313.096 18.456 313.096C17.772 313.096 17.214 313.636 17.214 314.356ZM7.278 299.152C7.278 301.852 9.492 303.184 13.488 303.184C17.484 303.184 19.716 301.852 19.716 299.152C19.716 296.452 17.484 295.12 13.488 295.12C9.51 295.12 7.278 296.452 7.278 299.152ZM8.592 299.152C8.592 297.658 9.96 296.848 13.488 296.848C17.034 296.848 18.402 297.658 18.402 299.152C18.402 300.664 17.034 301.456 13.488 301.456C9.96 301.456 8.592 300.664 8.592 299.152ZM8.754 278.577L7.458 278.343L7.458 284.859H13.524V283.563C13.254 282.987 13.11 282.501 13.11 281.853C13.11 280.611 13.758 279.657 15.612 279.657C17.376 279.657 18.366 280.611 18.366 282.123C18.366 283.167 17.988 283.941 17.214 284.661L18.186 285.669C19.14 284.733 19.716 283.635 19.716 282.105C19.716 279.603 18.042 277.929 15.648 277.929C13.254 277.929 11.832 279.315 11.832 281.349C11.832 281.997 11.976 282.645 12.3 283.275H8.754L8.754 278.577ZM7.278 264.097C7.278 266.797 9.492 268.129 13.488 268.129C17.484 268.129 19.716 266.797 19.716 264.097C19.716 261.397 17.484 260.065 13.488 260.065C9.51 260.065 7.278 261.397 7.278 264.097ZM8.592 264.097C8.592 262.603 9.96 261.793 13.488 261.793C17.034 261.793 18.402 262.603 18.402 264.097C18.402 265.609 17.034 266.401 13.488 266.401C9.96 266.401 8.592 265.609 8.592 264.097ZM19.5 245.268H7.458L7.458 246.726L9.762 250.452L10.932 249.732L9.222 246.924H19.5V245.268ZM19.5 204.037H7.098L7.098 205.639H13.866C15.378 205.639 17.358 205.441 17.646 205.405L7.098 210.499L7.098 212.731H19.5V211.129H13.812C11.508 211.129 9.996 211.273 8.97 211.363L19.5 206.323V204.037ZM13.164 180.4H14.568V175.306H13.164V180.4ZM19.5 161.303H7.458L7.458 162.761L9.762 166.487L10.932 165.767L9.222 162.959H19.5V161.303ZM19.5 145.516H7.458V146.974L9.762 150.7L10.932 149.98L9.222 147.172H19.5V145.516ZM13.038 128.973C12.354 127.605 11.544 126.921 10.32 126.921C8.268 126.921 7.278 128.775 7.278 130.575C7.278 132.411 8.34 134.229 10.374 134.229C11.616 134.229 12.534 133.653 13.182 132.357C13.83 133.833 14.766 134.733 16.314 134.733C18.294 134.733 19.716 133.095 19.716 130.611C19.716 128.163 18.294 126.435 16.278 126.435C14.766 126.435 13.704 127.317 13.038 128.973ZM8.52 130.575C8.52 129.261 9.258 128.541 10.374 128.541C11.4 128.541 12.03 128.991 12.642 130.071L12.534 130.377C12.084 131.763 11.634 132.609 10.392 132.609C9.186 132.609 8.52 131.817 8.52 130.575ZM18.402 130.593C18.402 132.087 17.628 133.005 16.314 133.005C15 133.005 14.172 132.429 13.596 131.241L13.758 130.791C14.424 128.847 15 128.163 16.296 128.163C17.556 128.163 18.402 129.081 18.402 130.593ZM17.214 115.487C17.214 116.189 17.772 116.729 18.456 116.729C19.158 116.729 19.716 116.189 19.716 115.487C19.716 114.767 19.158 114.227 18.456 114.227C17.772 114.227 17.214 114.767 17.214 115.487ZM7.278 101.201C7.278 102.713 7.89 103.883 9.096 104.855L9.96 103.739C9.042 102.965 8.646 102.299 8.646 101.291C8.646 100.121 9.384 99.3107 10.644 99.3107C12.606 99.3107 13.758 100.355 18.186 104.603H19.5L19.5 97.4927L18.114 97.2947L18.114 102.713C14.424 99.0227 12.822 97.5827 10.572 97.5827C8.7 97.5827 7.278 98.9867 7.278 101.201ZM16.53 79.3566H15.216V80.9226H11.976L11.976 82.3626L15.216 82.5066V85.9266L7.854 82.6686L7.278 84.0546L15.342 87.6726H16.53V82.5246H19.5V80.9226H16.53V79.3566ZM16.53 61.7765H15.216V63.3425H11.976V64.7825L15.216 64.9265V68.3465L7.854 65.0885L7.278 66.4745L15.342 70.0925H16.53L16.53 64.9445H19.5V63.3425H16.53V61.7765ZM11.58 47.6884C11.58 48.8224 12.048 49.7944 13.164 50.5864C10.41 50.4964 8.592 49.4524 8.592 47.7064C8.592 47.0404 8.772 46.4104 9.114 45.8524L8.016 45.2044C7.548 45.9064 7.278 46.7164 7.278 47.6884C7.278 50.5324 9.906 52.2424 13.848 52.2424C17.304 52.2424 19.716 51.1264 19.716 48.1924C19.716 46.0684 18.042 44.3584 15.414 44.3584C12.84 44.3584 11.58 45.9244 11.58 47.6884ZM18.402 48.1924C18.402 49.7944 17.178 50.4964 14.55 50.5684C13.56 49.9564 12.894 49.0564 12.894 47.9764C12.894 46.8424 13.56 46.0324 15.468 46.0324C17.232 46.0324 18.402 46.7704 18.402 48.1924ZM19.5 2.97309L7.098 0.453093V2.01909L18.006 4.08909L7.098 6.53709L7.098 8.35509L18.006 10.7491L7.098 12.7471L7.098 14.4211L19.5 11.9011V9.75909L9.114 7.45509L19.5 5.16909V2.97309Z" fill="white"/>
<circle cx="11" cy="40.5" r="2.5" stroke="white"/>
<circle cx="11" cy="239.5" r="2.5" stroke="white"/>
</g>
</svg>
