<svg width="14" height="17" viewBox="0 0 14 17" fill="none" xmlns="http://www.w3.org/2000/svg">
<g opacity="0.299219">
<path fill-rule="evenodd" clip-rule="evenodd" d="M6.91561 0.375244C8.47501 0.375244 9.98905 0.901804 11.1828 1.85804V1.85801C12.7422 3.10637 13.6594 4.88137 13.7703 6.85481C13.8766 8.80317 13.1485 10.7094 11.7735 12.0844L7.21545 16.5828C7.03889 16.7578 6.73266 16.7562 6.55609 16.5812L2.06249 12.0876C0.684372 10.7095 -0.0453196 8.80172 0.0624924 6.85484C0.171852 4.88148 1.09061 3.10648 2.64841 1.85804C3.84061 0.901804 5.35625 0.375244 6.91561 0.375244ZM3.85313 7.23476C3.85313 8.9238 5.22653 10.2972 6.91561 10.2972C8.60465 10.2972 9.97966 8.92384 9.97809 7.23476C9.97809 5.54572 8.60469 4.17228 6.91561 4.17228C5.22657 4.17228 3.85313 5.54568 3.85313 7.23476Z" fill="white"/>
<path d="M6.9156 5.74194C6.09216 5.74194 5.4234 6.4107 5.4234 7.23414C5.4234 8.05758 6.09216 8.72634 6.9156 8.72634C7.73904 8.72634 8.4078 8.05758 8.4078 7.23414C8.4078 6.4107 7.73904 5.74194 6.9156 5.74194Z" fill="white"/>
</g>
</svg>
